{
  "accessors": [
    {
      "bufferView": 2,
      "componentType": 5126,
      "count": 15199,
      "max": [
        0.1359441876411438,
        -0.3673225939273834,
        0.2069966346025467
      ],
      "min": [
        -0.13594414293766022,
        -0.5129102468490601,
        0.12183143943548203
      ],
      "type": "VEC3"
    },
    {
      "bufferView": 2,
      "byteOffset": 182388,
      "componentType": 5126,
      "count": 15199,
      "max": [
        1.0,
        0.9951860308647156,
        0.9951850771903992
      ],
      "min": [
        -1.0,
        -0.9951858520507813,
        -1.0
      ],
      "type": "VEC3"
    },
    {
      "bufferView": 1,
      "componentType": 5126,
      "count": 15199,
      "max": [
        0.9994261860847473,
        0.9804604053497314
      ],
      "min": [
        -4.729205915765533e-09,
        7.47520378929778e-10
      ],
      "type": "VEC2"
    },
    {
      "bufferView": 1,
      "byteOffset": 121592,
      "componentType": 5126,
      "count": 15199,
      "max": [
        0.9994261860847473,
        0.9804604053497314
      ],
      "min": [
        -4.729205915765533e-09,
        7.47520378929778e-10
      ],
      "type": "VEC2"
    },
    {
      "bufferView": 1,
      "byteOffset": 243184,
      "componentType": 5126,
      "count": 15199,
      "max": [
        0.9994261860847473,
        0.9804604053497314
      ],
      "min": [
        -4.729205915765533e-09,
        7.47520378929778e-10
      ],
      "type": "VEC2"
    },
    {
      "bufferView": 0,
      "componentType": 5125,
      "count": 44682,
      "type": "SCALAR"
    },
    {
      "bufferView": 2,
      "byteOffset": 364776,
      "componentType": 5126,
      "count": 7964,
      "max": [
        0.15454904735088348,
        -0.3066953420639038,
        0.225788414478302
      ],
      "min": [
        -0.1545489877462387,
        -0.5269515514373779,
        0.0950060784816742
      ],
      "type": "VEC3"
    },
    {
      "bufferView": 2,
      "byteOffset": 460344,
      "componentType": 5126,
      "count": 7964,
      "max": [
        1.0,
        1.0,
        1.0
      ],
      "min": [
        -1.0,
        -1.0,
        -1.0
      ],
      "type": "VEC3"
    },
    {
      "bufferView": 1,
      "byteOffset": 364776,
      "componentType": 5126,
      "count": 7964,
      "max": [
        0.9946054816246033,
        0.9805586934089661
      ],
      "min": [
        1.930400284066991e-11,
        -8.03482436140257e-09
      ],
      "type": "VEC2"
    },
    {
      "bufferView": 1,
      "byteOffset": 428488,
      "componentType": 5126,
      "count": 7964,
      "max": [
        0.9946054816246033,
        0.9805586934089661
      ],
      "min": [
        1.930400284066991e-11,
        -8.03482436140257e-09
      ],
      "type": "VEC2"
    },
    {
      "bufferView": 1,
      "byteOffset": 492200,
      "componentType": 5126,
      "count": 7964,
      "max": [
        0.9946054816246033,
        0.9805586934089661
      ],
      "min": [
        1.930400284066991e-11,
        -8.03482436140257e-09
      ],
      "type": "VEC2"
    },
    {
      "bufferView": 0,
      "byteOffset": 178728,
      "componentType": 5125,
      "count": 28140,
      "type": "SCALAR"
    },
    {
      "bufferView": 2,
      "byteOffset": 555912,
      "componentType": 5126,
      "count": 3828,
      "max": [
        0.1732136607170105,
        -0.37520861625671387,
        0.2219708412885666
      ],
      "min": [
        -0.1732136607170105,
        -0.49694910645484924,
        0.15319828689098358
      ],
      "type": "VEC3"
    },
    {
      "bufferView": 2,
      "byteOffset": 601848,
      "componentType": 5126,
      "count": 3828,
      "max": [
        0.9987487196922302,
        0.9997302293777466,
        0.9995813965797424
      ],
      "min": [
        -0.9987489581108093,
        -0.9997311234474182,
        -0.9995676279067993
      ],
      "type": "VEC3"
    },
    {
      "bufferView": 1,
      "byteOffset": 555912,
      "componentType": 5126,
      "count": 3828,
      "max": [
        1.0,
        0.9359568953514099
      ],
      "min": [
        -4.824441290907089e-09,
        -1.2085648037896135e-08
      ],
      "type": "VEC2"
    },
    {
      "bufferView": 1,
      "byteOffset": 586536,
      "componentType": 5126,
      "count": 3828,
      "max": [
        1.0,
        0.9359568953514099
      ],
      "min": [
        -4.824441290907089e-09,
        -1.2085648037896135e-08
      ],
      "type": "VEC2"
    },
    {
      "bufferView": 1,
      "byteOffset": 617160,
      "componentType": 5126,
      "count": 3828,
      "max": [
        1.0,
        0.9359568953514099
      ],
      "min": [
        -4.824441290907089e-09,
        -1.2085648037896135e-08
      ],
      "type": "VEC2"
    },
    {
      "bufferView": 0,
      "byteOffset": 291288,
      "componentType": 5125,
      "count": 13536,
      "type": "SCALAR"
    },
    {
      "bufferView": 2,
      "byteOffset": 647784,
      "componentType": 5126,
      "count": 704,
      "max": [
        0.22110450267791748,
        0.036475785076618195,
        0.11257647722959518
      ],
      "min": [
        -0.2211044877767563,
        -1.862645149230957e-07,
        -0.11257651448249817
      ],
      "type": "VEC3"
    },
    {
      "bufferView": 2,
      "byteOffset": 656232,
      "componentType": 5126,
      "count": 704,
      "max": [
        0.9922286868095398,
        0.9983460307121277,
        0.9980185627937317
      ],
      "min": [
        -0.9922288060188293,
        -0.9984076619148254,
        -0.9980183243751526
      ],
      "type": "VEC3"
    },
    {
      "bufferView": 1,
      "byteOffset": 647784,
      "componentType": 5126,
      "count": 704,
      "max": [
        0.9714509844779968,
        0.9993411898612976
      ],
      "min": [
        -3.426556816066295e-08,
        -3.768829159866982e-08
      ],
      "type": "VEC2"
    },
    {
      "bufferView": 1,
      "byteOffset": 653416,
      "componentType": 5126,
      "count": 704,
      "max": [
        0.9714509844779968,
        0.9993411898612976
      ],
      "min": [
        -3.426556816066295e-08,
        -3.768829159866982e-08
      ],
      "type": "VEC2"
    },
    {
      "bufferView": 1,
      "byteOffset": 659048,
      "componentType": 5126,
      "count": 704,
      "max": [
        0.9714509844779968,
        0.9993411898612976
      ],
      "min": [
        -3.426556816066295e-08,
        -3.768829159866982e-08
      ],
      "type": "VEC2"
    },
    {
      "bufferView": 0,
      "byteOffset": 345432,
      "componentType": 5125,
      "count": 2826,
      "type": "SCALAR"
    },
    {
      "bufferView": 2,
      "byteOffset": 664680,
      "componentType": 5126,
      "count": 1377,
      "max": [
        0.047038838267326355,
        0.06898386031389236,
        0.053526412695646286
      ],
      "min": [
        -0.04703884571790695,
        0.031480658799409866,
        -0.053526412695646286
      ],
      "type": "VEC3"
    },
    {
      "bufferView": 2,
      "byteOffset": 681204,
      "componentType": 5126,
      "count": 1377,
      "max": [
        0.9982147812843323,
        0.9918537139892578,
        0.9970417618751526
      ],
      "min": [
        -0.9982147812843323,
        -0.9960816502571106,
        -0.9970418214797974
      ],
      "type": "VEC3"
    },
    {
      "bufferView": 1,
      "byteOffset": 664680,
      "componentType": 5126,
      "count": 1377,
      "max": [
        0.9515093564987183,
        0.9999998807907104
      ],
      "min": [
        -9.720588778350248e-09,
        3.6312013396155862e-09
      ],
      "type": "VEC2"
    },
    {
      "bufferView": 1,
      "byteOffset": 675696,
      "componentType": 5126,
      "count": 1377,
      "max": [
        0.9515093564987183,
        0.9999998807907104
      ],
      "min": [
        -9.720588778350248e-09,
        3.6312013396155862e-09
      ],
      "type": "VEC2"
    },
    {
      "bufferView": 1,
      "byteOffset": 686712,
      "componentType": 5126,
      "count": 1377,
      "max": [
        0.9515093564987183,
        0.9999998807907104
      ],
      "min": [
        -9.720588778350248e-09,
        3.6312013396155862e-09
      ],
      "type": "VEC2"
    },
    {
      "bufferView": 0,
      "byteOffset": 356736,
      "componentType": 5125,
      "count": 5760,
      "type": "SCALAR"
    },
    {
      "bufferView": 2,
      "byteOffset": 697728,
      "componentType": 5126,
      "count": 3198,
      "max": [
        0.8788802027702332,
        1.8279621601104736,
        0.283083975315094
      ],
      "min": [
        -0.8788802027702332,
        -0.4565538763999939,
        -0.020515769720077515
      ],
      "type": "VEC3"
    },
    {
      "bufferView": 2,
      "byteOffset": 736104,
      "componentType": 5126,
      "count": 3198,
      "max": [
        1.0,
        1.0,
        1.0
      ],
      "min": [
        -1.0,
        -1.0,
        -1.0
      ],
      "type": "VEC3"
    },
    {
      "bufferView": 1,
      "byteOffset": 697728,
      "componentType": 5126,
      "count": 3198,
      "max": [
        0.873635470867157,
        1.0
      ],
      "min": [
        -1.2016396766512116e-09,
        -1.6393807200643096e-08
      ],
      "type": "VEC2"
    },
    {
      "bufferView": 1,
      "byteOffset": 723312,
      "componentType": 5126,
      "count": 3198,
      "max": [
        0.873635470867157,
        1.0
      ],
      "min": [
        -1.2016396766512116e-09,
        -1.6393807200643096e-08
      ],
      "type": "VEC2"
    },
    {
      "bufferView": 1,
      "byteOffset": 748896,
      "componentType": 5126,
      "count": 3198,
      "max": [
        0.873635470867157,
        1.0
      ],
      "min": [
        -1.2016396766512116e-09,
        -1.6393807200643096e-08
      ],
      "type": "VEC2"
    },
    {
      "bufferView": 0,
      "byteOffset": 379776,
      "componentType": 5125,
      "count": 13626,
      "type": "SCALAR"
    },
    {
      "bufferView": 2,
      "byteOffset": 774480,
      "componentType": 5126,
      "count": 114,
      "max": [
        0.08697143197059631,
        1.6718626022338867,
        0.21893471479415894
      ],
      "min": [
        -0.08697143197059631,
        1.6697901487350464,
        0.04666300117969513
      ],
      "type": "VEC3"
    },
    {
      "bufferView": 2,
      "byteOffset": 775848,
      "componentType": 5126,
      "count": 114,
      "max": [
        0.9918486475944519,
        0.9831252694129944,
        0.9739239811897278
      ],
      "min": [
        -0.9918528199195862,
        -0.9830892086029053,
        -0.993008017539978
      ],
      "type": "VEC3"
    },
    {
      "bufferView": 1,
      "byteOffset": 774480,
      "componentType": 5126,
      "count": 114,
      "max": [
        0.20510832965373993,
        0.6424364447593689
      ],
      "min": [
        0.013596334494650364,
        0.04394341632723808
      ],
      "type": "VEC2"
    },
    {
      "bufferView": 1,
      "byteOffset": 775392,
      "componentType": 5126,
      "count": 114,
      "max": [
        0.20510832965373993,
        0.6424364447593689
      ],
      "min": [
        0.013596334494650364,
        0.04394341632723808
      ],
      "type": "VEC2"
    },
    {
      "bufferView": 1,
      "byteOffset": 776304,
      "componentType": 5126,
      "count": 114,
      "max": [
        0.20510832965373993,
        0.6424364447593689
      ],
      "min": [
        0.013596334494650364,
        0.04394341632723808
      ],
      "type": "VEC2"
    },
    {
      "bufferView": 0,
      "byteOffset": 434280,
      "componentType": 5125,
      "count": 306,
      "type": "SCALAR"
    },
    {
      "bufferView": 2,
      "byteOffset": 777216,
      "componentType": 5126,
      "count": 38,
      "max": [
        0.10864086449146271,
        1.2429382801055908,
        0.24018776416778564
      ],
      "min": [
        -0.10864085704088211,
        1.205173134803772,
        0.024993546307086945
      ],
      "type": "VEC3"
    },
    {
      "bufferView": 2,
      "byteOffset": 777672,
      "componentType": 5126,
      "count": 38,
      "max": [
        0.9987945556640625,
        0.0021149255335330963,
        0.9807844161987305
      ],
      "min": [
        -0.9987945556640625,
        0.0013839354505762458,
        -0.9999991059303284
      ],
      "type": "VEC3"
    },
    {
      "bufferView": 1,
      "byteOffset": 777216,
      "componentType": 5126,
      "count": 38,
      "max": [
        0.21873803436756134,
        0.5051305294036865
      ],
      "min": [
        0.0002772438165266067,
        0.1823175847530365
      ],
      "type": "VEC2"
    },
    {
      "bufferView": 1,
      "byteOffset": 777520,
      "componentType": 5126,
      "count": 38,
      "max": [
        0.21873803436756134,
        0.5051305294036865
      ],
      "min": [
        0.0002772438165266067,
        0.1823175847530365
      ],
      "type": "VEC2"
    },
    {
      "bufferView": 1,
      "byteOffset": 777824,
      "componentType": 5126,
      "count": 38,
      "max": [
        0.21873803436756134,
        0.5051305294036865
      ],
      "min": [
        0.0002772438165266067,
        0.1823175847530365
      ],
      "type": "VEC2"
    },
    {
      "bufferView": 0,
      "byteOffset": 435504,
      "componentType": 5125,
      "count": 102,
      "type": "SCALAR"
    },
    {
      "bufferView": 2,
      "byteOffset": 778128,
      "componentType": 5126,
      "count": 1256,
      "max": [
        0.5577349662780762,
        0.18898670375347137,
        0.1703481674194336
      ],
      "min": [
        -0.5577349662780762,
        -0.3871188759803772,
        0.13378804922103882
      ],
      "type": "VEC3"
    },
    {
      "bufferView": 2,
      "byteOffset": 793200,
      "componentType": 5126,
      "count": 1256,
      "max": [
        0.9991505146026611,
        0.9965558648109436,
        0.9872654676437378
      ],
      "min": [
        -0.9991291761398315,
        -0.9965612292289734,
        -0.9984468817710876
      ],
      "type": "VEC3"
    },
    {
      "bufferView": 1,
      "byteOffset": 778128,
      "componentType": 5126,
      "count": 1256,
      "max": [
        0.9999863505363464,
        0.9999999403953552
      ],
      "min": [
        -4.2259539867472995e-08,
        -2.9142132262904852e-08
      ],
      "type": "VEC2"
    },
    {
      "bufferView": 1,
      "byteOffset": 788176,
      "componentType": 5126,
      "count": 1256,
      "max": [
        0.9999863505363464,
        0.9999999403953552
      ],
      "min": [
        -4.2259539867472995e-08,
        -2.9142132262904852e-08
      ],
      "type": "VEC2"
    },
    {
      "bufferView": 1,
      "byteOffset": 798224,
      "componentType": 5126,
      "count": 1256,
      "max": [
        0.9999863505363464,
        0.9999999403953552
      ],
      "min": [
        -4.2259539867472995e-08,
        -2.9142132262904852e-08
      ],
      "type": "VEC2"
    },
    {
      "bufferView": 0,
      "byteOffset": 435912,
      "componentType": 5125,
      "count": 3636,
      "type": "SCALAR"
    },
    {
      "bufferView": 2,
      "byteOffset": 808272,
      "componentType": 5126,
      "count": 7178,
      "max": [
        0.5546847581863403,
        0.7849184274673462,
        0.15433119237422943
      ],
      "min": [
        -0.5546847581863403,
        -0.37817659974098206,
        0.11554519832134247
      ],
      "type": "VEC3"
    },
    {
      "bufferView": 2,
      "byteOffset": 894408,
      "componentType": 5126,
      "count": 7178,
      "max": [
        1.0,
        0.995181679725647,
        1.0
      ],
      "min": [
        -1.0,
        -0.9951925277709961,
        -1.0
      ],
      "type": "VEC3"
    },
    {
      "bufferView": 1,
      "byteOffset": 808272,
      "componentType": 5126,
      "count": 7178,
      "max": [
        0.873635470867157,
        0.8768583536148071
      ],
      "min": [
        0.42870956659317017,
        0.7571381330490112
      ],
      "type": "VEC2"
    },
    {
      "bufferView": 1,
      "byteOffset": 865696,
      "componentType": 5126,
      "count": 7178,
      "max": [
        0.873635470867157,
        0.8768583536148071
      ],
      "min": [
        0.42870956659317017,
        0.7571381330490112
      ],
      "type": "VEC2"
    },
    {
      "bufferView": 1,
      "byteOffset": 923120,
      "componentType": 5126,
      "count": 7178,
      "max": [
        0.873635470867157,
        0.8768583536148071
      ],
      "min": [
        0.42870956659317017,
        0.7571381330490112
      ],
      "type": "VEC2"
    },
    {
      "bufferView": 0,
      "byteOffset": 450456,
      "componentType": 5125,
      "count": 11808,
      "type": "SCALAR"
    },
    {
      "bufferView": 2,
      "byteOffset": 980544,
      "componentType": 5126,
      "count": 257,
      "max": [
        0.42267099022865295,
        0.41077595949172974,
        0.18284361064434052
      ],
      "min": [
        0.39537614583969116,
        0.3835548162460327,
        0.17222407460212708
      ],
      "type": "VEC3"
    },
    {
      "bufferView": 2,
      "byteOffset": 983628,
      "componentType": 5126,
      "count": 257,
      "max": [
        0.9988453388214111,
        0.9997309446334839,
        0.9930741786956787
      ],
      "min": [
        -0.9988455176353455,
        -0.9997308254241943,
        -0.9985764026641846
      ],
      "type": "VEC3"
    },
    {
      "bufferView": 1,
      "byteOffset": 980544,
      "componentType": 5126,
      "count": 257,
      "max": [
        1.0000009536743164,
        0.9234113693237305
      ],
      "min": [
        2.2211037276065326e-07,
        -8.036586223170161e-07
      ],
      "type": "VEC2"
    },
    {
      "bufferView": 1,
      "byteOffset": 982600,
      "componentType": 5126,
      "count": 257,
      "max": [
        1.0000009536743164,
        0.9234113693237305
      ],
      "min": [
        2.2211037276065326e-07,
        -8.036586223170161e-07
      ],
      "type": "VEC2"
    },
    {
      "bufferView": 1,
      "byteOffset": 984656,
      "componentType": 5126,
      "count": 257,
      "max": [
        1.0000009536743164,
        0.9234113693237305
      ],
      "min": [
        2.2211037276065326e-07,
        -8.036586223170161e-07
      ],
      "type": "VEC2"
    },
    {
      "bufferView": 0,
      "byteOffset": 497688,
      "componentType": 5125,
      "count": 948,
      "type": "SCALAR"
    }
  ],
  "asset": {
    "extras": {
      "author": "faintastic (https://sketchfab.com/faintastic)",
      "license": "CC-BY-4.0 (http://creativecommons.org/licenses/by/4.0/)",
      "source": "https://sketchfab.com/3d-models/shahed-136-bc8754128c9d48c48baadeff1db8f0c7",
      "title": "Shahed 136"
    },
    "generator": "Sketchfab-16.72.0",
    "version": "2.0"
  },
  "bufferViews": [
    {
      "buffer": 0,
      "byteLength": 501480,
      "name": "floatBufferViews",
      "target": 34963
    },
    {
      "buffer": 0,
      "byteLength": 986712,
      "byteOffset": 501480,
      "byteStride": 8,
      "name": "floatBufferViews",
      "target": 34962
    },
    {
      "buffer": 0,
      "byteLength": 986712,
      "byteOffset": 1488192,
      "byteStride": 12,
      "name": "floatBufferViews",
      "target": 34962
    }
  ],
  "buffers": [
    {
      "byteLength": 2474904,
      "uri": "scene.bin"
    }
  ],
  "materials": [
    {
      "doubleSided": true,
      "name": "Dark_Steel.001",
      "pbrMetallicRoughness": {
        "baseColorFactor": [
          0.0765785,
          0.0765785,
          0.0765785,
          1.0
        ],
        "metallicFactor": 0.0,
        "roughnessFactor": 0.9828765268385032
      }
    },
    {
      "doubleSided": true,
      "name": "Mesin_Silver.002",
      "pbrMetallicRoughness": {
        "baseColorFactor": [
          0.404356,
          0.404356,
          0.404356,
          1.0
        ],
        "metallicFactor": 0.0,
        "roughnessFactor": 0.9095832496890095
      }
    },
    {
      "doubleSided": true,
      "name": "Silver_2.001",
      "pbrMetallicRoughness": {
        "baseColorFactor": [
          0.404356,
          0.296551,
          0.143202,
          1.0
        ],
        "metallicFactor": 0.0,
        "roughnessFactor": 0.9310399888770758
      }
    },
    {
      "doubleSided": true,
      "name": "Kayu",
      "pbrMetallicRoughness": {
        "baseColorFactor": [
          0.323557,
          0.0742508,
          0.032791,
          1.0
        ],
        "metallicFactor": 0.0,
        "roughnessFactor": 0.9722146415470476
      }
    },
    {
      "doubleSided": true,
      "name": "Perunggu",
      "pbrMetallicRoughness": {
        "baseColorFactor": [
          0.8,
          0.23311,
          0.0924075,
          1.0
        ],
        "metallicFactor": 0.0,
        "roughnessFactor": 0.9204287527574536
      }
    },
    {
      "doubleSided": true,
      "name": "Main",
      "pbrMetallicRoughness": {
        "baseColorFactor": [
          0.487805,
          0.487805,
          0.487805,
          1.0
        ],
        "metallicFactor": 0.0,
        "roughnessFactor": 0.8909234860235715
      }
    },
    {
      "doubleSided": true,
      "name": "Main.Hitam",
      "pbrMetallicRoughness": {
        "baseColorFactor": [
          0.0514103,
          0.0514103,
          0.0514103,
          1.0
        ],
        "metallicFactor": 0.0,
        "roughnessFactor": 0.9885043074456342
      }
    },
    {
      "doubleSided": true,
      "name": "Main.Biru",
      "pbrMetallicRoughness": {
        "baseColorFactor": [
          0.0781874,
          0.0781874,
          0.371238,
          1.0
        ],
        "metallicFactor": 0.0,
        "roughnessFactor": 0.9777856365907353
      }
    },
    {
      "doubleSided": true,
      "name": "Abu_abu",
      "pbrMetallicRoughness": {
        "baseColorFactor": [
          0.298932,
          0.298932,
          0.298932,
          1.0
        ],
        "metallicFactor": 0.0
      }
    },
    {
      "doubleSided": true,
      "name": "Silver.001",
      "pbrMetallicRoughness": {
        "baseColorFactor": [
          0.404356,
          0.404356,
          0.404356,
          1.0
        ],
        "metallicFactor": 0.0,
        "roughnessFactor": 0.9095832496890095
      }
    },
    {
      "doubleSided": true,
      "name": "Hitam",
      "pbrMetallicRoughness": {
        "baseColorFactor": [
          0.0207918,
          0.0207918,
          0.0207918,
          1.0
        ],
        "metallicFactor": 0.0
      }
    }
  ],
  "meshes": [
    {
      "name": "Mesin_Dark Steel.001_0",
      "primitives": [
        {
          "attributes": {
            "NORMAL": 1,
            "POSITION": 0,
            "TEXCOORD_0": 2,
            "TEXCOORD_1": 3,
            "TEXCOORD_2": 4
          },
          "indices": 5,
          "material": 0,
          "mode": 4
        }
      ]
    },
    {
      "name": "Mesin_Mesin Silver.002_0",
      "primitives": [
        {
          "attributes": {
            "NORMAL": 7,
            "POSITION": 6,
            "TEXCOORD_0": 8,
            "TEXCOORD_1": 9,
            "TEXCOORD_2": 10
          },
          "indices": 11,
          "material": 1,
          "mode": 4
        }
      ]
    },
    {
      "name": "Mesin_Silver 2.001_0",
      "primitives": [
        {
          "attributes": {
            "NORMAL": 13,
            "POSITION": 12,
            "TEXCOORD_0": 14,
            "TEXCOORD_1": 15,
            "TEXCOORD_2": 16
          },
          "indices": 17,
          "material": 2,
          "mode": 4
        }
      ]
    },
    {
      "name": "Baling baling_Kayu_0",
      "primitives": [
        {
          "attributes": {
            "NORMAL": 19,
            "POSITION": 18,
            "TEXCOORD_0": 20,
            "TEXCOORD_1": 21,
            "TEXCOORD_2": 22
          },
          "indices": 23,
          "material": 3,
          "mode": 4
        }
      ]
    },
    {
      "name": "Baling baling_Perunggu_0",
      "primitives": [
        {
          "attributes": {
            "NORMAL": 25,
            "POSITION": 24,
            "TEXCOORD_0": 26,
            "TEXCOORD_1": 27,
            "TEXCOORD_2": 28
          },
          "indices": 29,
          "material": 4,
          "mode": 4
        }
      ]
    },
    {
      "name": "Utama_Main_0",
      "primitives": [
        {
          "attributes": {
            "NORMAL": 31,
            "POSITION": 30,
            "TEXCOORD_0": 32,
            "TEXCOORD_1": 33,
            "TEXCOORD_2": 34
          },
          "indices": 35,
          "material": 5,
          "mode": 4
        }
      ]
    },
    {
      "name": "Utama_Main.Hitam_0",
      "primitives": [
        {
          "attributes": {
            "NORMAL": 37,
            "POSITION": 36,
            "TEXCOORD_0": 38,
            "TEXCOORD_1": 39,
            "TEXCOORD_2": 40
          },
          "indices": 41,
          "material": 6,
          "mode": 4
        }
      ]
    },
    {
      "name": "Utama_Main.Biru_0",
      "primitives": [
        {
          "attributes": {
            "NORMAL": 43,
            "POSITION": 42,
            "TEXCOORD_0": 44,
            "TEXCOORD_1": 45,
            "TEXCOORD_2": 46
          },
          "indices": 47,
          "material": 7,
          "mode": 4
        }
      ]
    },
    {
      "name": "Komponen_Abu abu_0",
      "primitives": [
        {
          "attributes": {
            "NORMAL": 49,
            "POSITION": 48,
            "TEXCOORD_0": 50,
            "TEXCOORD_1": 51,
            "TEXCOORD_2": 52
          },
          "indices": 53,
          "material": 8,
          "mode": 4
        }
      ]
    },
    {
      "name": "Komponen_Silver.001_0",
      "primitives": [
        {
          "attributes": {
            "NORMAL": 55,
            "POSITION": 54,
            "TEXCOORD_0": 56,
            "TEXCOORD_1": 57,
            "TEXCOORD_2": 58
          },
          "indices": 59,
          "material": 9,
          "mode": 4
        }
      ]
    },
    {
      "name": "Komponen_Hitam_0",
      "primitives": [
        {
          "attributes": {
            "NORMAL": 61,
            "POSITION": 60,
            "TEXCOORD_0": 62,
            "TEXCOORD_1": 63,
            "TEXCOORD_2": 64
          },
          "indices": 65,
          "material": 10,
          "mode": 4
        }
      ]
    }
  ],
  "nodes": [
    {
      "children": [
        1
      ],
      "matrix": [
        1.0,
        0.0,
        0.0,
        0.0,
        0.0,
        2.220446049250313e-16,
        -1.0,
        0.0,
        0.0,
        1.0,
        2.220446049250313e-16,
        0.0,
        0.0,
        0.0,
        0.0,
        1.0
      ],
      "name": "Sketchfab_model"
    },
    {
      "children": [
        2
      ],
      "matrix": [
        0.009999999776482582,
        0.0,
        0.0,
        0.0,
        0.0,
        0.0,
        0.009999999776482582,
        0.0,
        0.0,
        -0.009999999776482582,
        0.0,
        0.0,
        0.0,
        0.0,
        0.0,
        1.0
      ],
      "name": "993f1698d5954f51a3ec8828d330255e.fbx"
    },
    {
      "children": [
        3,
        7,
        10,
        14,
        18
      ],
      "name": "RootNode"
    },
    {
      "children": [
        4,
        5,
        6
      ],
      "matrix": [
        -99.99999999999241,
        1.2246465878873718e-14,
        3.8941437775530106e-05,
        0.0,
        3.894143777553e-05,
        7.549789982075339e-06,
        99.99999999999213,
        0.0,
        -2.9277502948264183e-12,
        99.9999999999997,
        -7.549789970973109e-06,
        0.0,
        3.1556294288748177e-06,
        0.0,
        28.964147567749023,
        1.0
      ],
      "name": "Mesin"
    },
    {
      "mesh": 0,
      "name": "Mesin_Dark Steel.001_0"
    },
    {
      "mesh": 1,
      "name": "Mesin_Mesin Silver.002_0"
    },
    {
      "mesh": 2,
      "name": "Mesin_Silver 2.001_0"
    },
    {
      "children": [
        8,
        9
      ],
      "matrix": [
        116.09432800393327,
        31.40421708857245,
        -3.6587247138908046e-05,
        0.0,
        2.739486021641202e-05,
        1.523161126115724e-05,
        99.9999999999951,
        0.0,
        27.59792736692538,
        -102.02333090896084,
        7.979383525765409e-06,
        0.0,
        -5.687755219696555e-06,
        14.234687805175781,
        -28.964143753051758,
        1.0
      ],
      "name": "Baling baling"
    },
    {
      "mesh": 3,
      "name": "Baling baling_Kayu_0"
    },
    {
      "mesh": 4,
      "name": "Baling baling_Perunggu_0"
    },
    {
      "children": [
        11,
        12,
        13
      ],
      "matrix": [
        -99.99999999999241,
        1.2246465878873718e-14,
        3.8941437775530106e-05,
        0.0,
        3.894143777553e-05,
        7.549789982075339e-06,
        99.99999999999213,
        0.0,
        -2.9277502948264183e-12,
        99.9999999999997,
        -7.549789970973109e-06,
        0.0,
        3.1556294288748177e-06,
        0.0,
        28.964147567749023,
        1.0
      ],
      "name": "Utama"
    },
    {
      "mesh": 5,
      "name": "Utama_Main_0"
    },
    {
      "mesh": 6,
      "name": "Utama_Main.Hitam_0"
    },
    {
      "mesh": 7,
      "name": "Utama_Main.Biru_0"
    },
    {
      "children": [
        15,
        16,
        17
      ],
      "matrix": [
        -99.99999999999241,
        1.2246465878873718e-14,
        3.8941437775530106e-05,
        0.0,
        3.894143777553e-05,
        7.549789982075339e-06,
        99.99999999999213,
        0.0,
        -2.9277502948264183e-12,
        99.9999999999997,
        -7.549789970973109e-06,
        0.0,
        3.1556294288748177e-06,
        0.0,
        28.964147567749023,
        1.0
      ],
      "name": "Komponen"
    },
    {
      "mesh": 8,
      "name": "Komponen_Abu abu_0"
    },
    {
      "mesh": 9,
      "name": "Komponen_Silver.001_0"
    },
    {
      "mesh": 10,
      "name": "Komponen_Hitam_0"
    },
    {
      "children": [
        19
      ],
      "matrix": [
        -67.5207669703205,
        -36.66347279220765,
        -64.00574810557819,
        0.0,
        -26.60916787770187,
        93.03650403097576,
        -25.222264538091643,
        0.0,
        68.79605801535813,
        0.0011305012171420237,
        -72.57479503512631,
        0.0,
        248.23048400878906,
        143.308349609375,
        311.6874694824219,
        1.0
      ],
      "name": "Camera"
    },
    {
      "name": "Object_19"
    }
  ],
  "scene": 0,
  "scenes": [
    {
      "name": "Sketchfab_Scene",
      "nodes": [
        0
      ]
    }
  ]
}
